<svg width="20" height="20" viewBox="0 0 20 20" fill="none" xmlns="http://www.w3.org/2000/svg">
<path fill-rule="evenodd" clip-rule="evenodd" d="M20 10C20 15.5228 15.5228 20 10 20C4.47715 20 0 15.5228 0 10C0 4.47715 4.47715 0 10 0C15.5228 0 20 4.47715 20 10ZM18 10C18 14.4183 14.4183 18 10 18C8.31996 18 6.76087 17.4821 5.47367 16.5973L16.0207 4.7319C17.2531 6.13921 18 7.98238 18 10ZM3.97928 15.2681L14.5263 3.40269C13.2391 2.51787 11.68 2 10 2C5.58172 2 2 5.58172 2 10C2 12.0176 2.7469 13.8608 3.97928 15.2681Z" fill="#1A1B1D"/>
</svg>
