<svg width="20" height="20" viewBox="0 0 20 20" fill="none" xmlns="http://www.w3.org/2000/svg">
<path d="M4 9H6.71429V11.7143H4V9Z" fill="#1A1B1D"/>
<path d="M6.71429 13.7144H4V16.4286H6.71429V13.7144Z" fill="#1A1B1D"/>
<path d="M8.71436 9H11.4286V11.7143H8.71436V9Z" fill="#1A1B1D"/>
<path d="M11.4286 13.7144H8.71436V16.4286H11.4286V13.7144Z" fill="#1A1B1D"/>
<path d="M13.4287 9H16.143V11.7143H13.4287V9Z" fill="#1A1B1D"/>
<path d="M16.143 13.7144H13.4287V16.4286H16.143V13.7144Z" fill="#1A1B1D"/>
<path fill-rule="evenodd" clip-rule="evenodd" d="M13 1H7V0H5V1H1C0.447715 1 0 1.44772 0 2V19C0 19.5523 0.447715 20 1 20H19C19.5523 20 20 19.5523 20 19V2C20 1.44772 19.5523 1 19 1H15V0H13V1ZM18 7H2V18H18V7ZM18 5V3H2V5H18Z" fill="#1A1B1D"/>
</svg>
