<svg width="20" height="20" viewBox="0 0 20 20" fill="none" xmlns="http://www.w3.org/2000/svg">
<path fill-rule="evenodd" clip-rule="evenodd" d="M20 10C20 15.5228 15.5228 20 10 20C4.47715 20 0 15.5228 0 10C0 4.47715 4.47715 0 10 0C15.5228 0 20 4.47715 20 10ZM14.6032 16.5438C13.3015 17.4612 11.7136 18 10 18C5.58172 18 2 14.4183 2 10C2 5.92038 5.05369 2.55399 9 2.06189V10.9405L14.6032 16.5438ZM16.0835 15.1956L11 10.1121V2.06189C14.9463 2.55399 18 5.92038 18 10C18 11.9831 17.2784 13.7977 16.0835 15.1956Z" fill="#1A1B1D"/>
</svg>
